# xmcd CD database file
#
# Track frame offsets:
#	150
#	63108
#	81977
#	104115
#	121249
#	141993
#	159362
#	177849
#	206545
#	226046
#	245902
#	265332
#	284265
#
# Disc length: 4024 seconds
#
# Revision: 0
# Processed by: cddbd v1.5.2PL0 Copyright (c) Steve Scherf et al.
# Submitted via: CDex 1.79
#
DISCID=ba0fb60d
DTITLE=James Moody - Wail, Moody, Wail and Hi-Fi Party
DYEAR=1900
DGENRE=Jazz
TTITLE0=Wail Moody, Wail
TTITLE1=The Golden Touch
TTITLE2=The Nearness Of You
TTITLE3=Donkey Serenade
TTITLE4=Moody's Blue Again
TTITLE5=There Will Never Be Another You
TTITLE6=Hard To Get
TTITLE7=Disappointed
TTITLE8=Big Ben
TTITLE9=Show Eyes
TTITLE10=Little John
TTITLE11=And You Called My Name
TTITLE12=Little Ricky
EXTD=
EXTT0=
EXTT1=
EXTT2=
EXTT3=
EXTT4=
EXTT5=
EXTT6=
EXTT7=
EXTT8=
EXTT9=
EXTT10=
EXTT11=
EXTT12=
PLAYORDER=
